# Blender 3.6.4
# www.blender.org
mtllib direction arrow.mtl
o Cube
v 1.000000 -0.183192 -1.000000
v 1.000000 -1.000000 -1.000000
v 1.000000 -0.183192 1.000000
v 1.000000 -1.000000 1.000000
v -1.000000 -0.183192 -1.000000
v -1.000000 -1.000000 -1.000000
v -1.000000 -0.183192 1.000000
v -1.000000 -1.000000 1.000000
v 0.023423 -1.000000 -1.895501
v 0.023423 -0.183192 0.104499
v 0.023423 -1.000000 0.104499
v 0.023423 -0.183192 -1.895501
vn -0.0000 1.0000 -0.0000
vn 0.6585 -0.0000 0.7526
vn -1.0000 -0.0000 -0.0000
vn -0.0000 -1.0000 -0.0000
vn 1.0000 -0.0000 -0.0000
vn 0.6759 -0.0000 -0.7370
vn -0.6585 -0.0000 -0.7526
vn -0.6759 -0.0000 0.7370
vt 0.747072 0.500000
vt 0.875000 0.500000
vt 0.875000 0.750000
vt 0.747072 0.750000
vt 0.375000 0.872072
vt 0.625000 0.872072
vt 0.625000 1.000000
vt 0.375000 1.000000
vt 0.375000 0.000000
vt 0.625000 0.000000
vt 0.625000 0.250000
vt 0.375000 0.250000
vt 0.252928 0.500000
vt 0.375000 0.500000
vt 0.375000 0.750000
vt 0.252928 0.750000
vt 0.625000 0.500000
vt 0.625000 0.750000
vt 0.375000 0.377928
vt 0.625000 0.377928
vt 0.125000 0.500000
vt 0.125000 0.750000
s 0
usemtl Material
f 12/1/1 5/2/1 7/3/1 10/4/1
f 11/5/2 10/6/2 7/7/2 8/8/2
f 8/9/3 7/10/3 5/11/3 6/12/3
f 9/13/4 2/14/4 4/15/4 11/16/4
f 2/14/5 1/17/5 3/18/5 4/15/5
f 9/19/6 12/20/6 1/17/6 2/14/6
f 6/12/7 5/11/7 12/20/7 9/19/7
f 6/21/4 9/13/4 11/16/4 8/22/4
f 4/15/8 3/18/8 10/6/8 11/5/8
f 1/17/1 12/1/1 10/4/1 3/18/1
